<?xml version="1.0" standalone="no"?>
<!DOCTYPE svg PUBLIC "-//W3C//DTD SVG 20010904//EN"
 "http://www.w3.org/TR/2001/REC-SVG-20010904/DTD/svg10.dtd">
<svg version="1.0" xmlns="http://www.w3.org/2000/svg"
 width="250.000000pt" height="250.000000pt" viewBox="0 0 250.000000 250.000000"
 preserveAspectRatio="xMidYMid meet">
<metadata>
Created by potrace 1.14, written by Peter Selinger 2001-2017
</metadata>
<g transform="translate(0.000000,250.000000) scale(0.100000,-0.100000)"
fill="#000000" stroke="none">
<path d="M1216 2107 c3 -10 9 -15 12 -12 3 3 0 11 -7 18 -10 9 -11 8 -5 -6z"/>
<path d="M1270 2100 c0 -6 5 -8 10 -5 6 3 10 -3 10 -15 0 -19 -1 -20 -16 -6
-16 17 -39 22 -30 7 4 -5 -3 -7 -14 -4 -11 3 -20 10 -20 16 0 5 -9 2 -20 -8
-11 -10 -20 -24 -20 -32 0 -7 -4 -13 -10 -13 -18 0 -39 -54 -28 -73 8 -15 12
-16 25 -5 8 7 19 21 23 33 6 14 9 15 9 4 1 -17 -34 -59 -50 -59 -6 0 -9 -6 -6
-14 3 -7 0 -19 -6 -25 -6 -6 -7 -11 -1 -11 18 0 23 -162 5 -184 -15 -18 -3
-26 23 -17 11 4 33 6 49 5 23 -2 27 1 28 24 1 15 1 30 0 34 -2 17 25 -5 41
-32 9 -17 24 -30 33 -30 9 0 13 5 9 11 -3 6 7 4 24 -5 32 -17 49 -11 31 11
-17 19 -13 183 3 183 5 0 8 5 8 11 0 5 -4 7 -10 4 -12 -8 -13 1 -1 24 8 13 5
17 -12 18 -24 2 -48 29 -46 52 1 9 6 4 12 -11 15 -39 47 -38 47 1 0 39 -24 58
-47 40 -16 -13 -17 -12 -4 4 12 16 12 21 -6 44 -21 30 -43 41 -43 23z m-46
-47 c3 -10 9 -24 12 -30 3 -7 2 -13 -3 -13 -5 0 -14 14 -20 30 -6 17 -8 30 -3
30 4 0 10 -8 14 -17z m62 -7 c18 5 18 5 1 -6 -9 -6 -15 -16 -11 -22 4 -7 10
-5 16 3 8 11 9 11 5 -1 -2 -8 -9 -15 -14 -15 -21 0 -26 -14 -12 -31 12 -15 11
-16 -9 -10 -22 7 -22 6 -10 -13 7 -12 23 -21 36 -21 16 0 21 4 16 13 -5 8 -2
8 9 -2 21 -17 21 -16 -5 -18 -12 -1 -26 -9 -30 -18 -5 -8 -14 -15 -19 -15 -6
0 -7 5 -3 12 4 7 3 8 -5 4 -9 -6 -9 -11 0 -22 9 -12 9 -13 -3 -9 -9 3 -20 17
-26 31 -10 19 -9 24 3 24 8 0 15 7 15 15 0 8 -5 15 -11 15 -8 0 -8 5 1 15 7 8
9 15 4 16 -5 0 2 5 16 10 23 10 24 11 8 23 -10 7 -18 19 -18 26 0 9 3 10 14 1
7 -6 22 -9 32 -5z m-83 -97 c-6 -6 -9 -19 -6 -28 4 -14 3 -14 -6 -1 -9 12 -11
13 -11 1 0 -8 -3 -11 -7 -8 -6 7 24 47 36 47 3 0 0 -5 -6 -11z m-11 -106 c-7
-12 -6 -26 5 -48 8 -16 11 -25 6 -20 -4 6 -19 23 -33 38 -16 18 -20 27 -10 25
8 -2 19 7 25 20 5 12 11 18 13 13 2 -6 -1 -18 -6 -28z m145 1 c19 8 16 -3 -12
-36 -14 -16 -25 -24 -25 -17 0 6 8 18 18 25 14 11 14 13 2 14 -9 0 -16 10 -16
28 -2 26 -1 27 9 4 6 -13 16 -21 24 -18z m-99 -41 c1 -24 0 -25 -9 -10 -5 9
-7 22 -4 27 9 15 10 13 13 -17z m46 12 c-4 -8 -11 -15 -16 -15 -6 0 -5 6 2 15
7 8 14 15 16 15 2 0 1 -7 -2 -15z m-17 -47 c-3 -8 -6 -5 -6 6 -1 11 2 17 5 13
3 -3 4 -12 1 -19z m-57 -28 c0 -5 -5 -10 -11 -10 -5 0 -7 5 -4 10 3 6 8 10 11
10 2 0 4 -4 4 -10z m100 -11 c0 -6 -4 -7 -10 -4 -5 3 -10 11 -10 16 0 6 5 7
10 4 6 -3 10 -11 10 -16z"/>
<path d="M1237 1683 c-4 -3 -2 -12 3 -18 8 -9 6 -14 -5 -19 -19 -7 -19 -30 1
-46 12 -11 18 -10 32 4 14 13 14 20 4 36 -6 11 -12 27 -12 35 0 16 -12 20 -23
8z"/>
<path d="M1133 1661 c-112 -41 -211 -126 -262 -226 -90 -176 -86 -392 11 -585
46 -92 50 -105 29 -105 -16 0 -65 -89 -51 -93 5 -2 10 -8 10 -13 0 -6 -4 -8
-8 -5 -4 2 -7 -8 -6 -22 1 -15 -3 -32 -7 -38 -8 -10 -16 -45 -33 -146 -6 -35
20 -59 52 -47 30 11 28 43 -4 66 -22 16 -25 23 -16 40 6 11 9 28 6 39 -7 31
10 49 32 34 17 -10 17 -11 1 -6 -20 6 -36 -20 -21 -34 11 -11 67 37 59 50 -8
12 -3 13 29 0 20 -7 27 -6 34 6 6 11 9 5 9 -20 0 -33 -1 -34 -14 -16 -18 26
-29 25 -65 -5 -16 -14 -24 -25 -18 -25 6 0 8 -5 4 -11 -5 -8 -9 -8 -14 1 -5 8
-12 7 -24 -5 -20 -21 -20 -31 0 -39 28 -11 46 -7 40 9 -3 9 0 15 10 15 11 0
15 -6 11 -20 -3 -14 -1 -18 6 -13 20 13 36 12 31 -2 -3 -7 -17 -11 -33 -9 -26
3 -29 0 -34 -29 -6 -40 -2 -45 21 -24 10 10 26 17 35 17 9 0 24 12 33 26 15
22 15 27 3 35 -8 5 -19 9 -26 9 -7 0 -10 7 -7 15 4 8 0 23 -7 33 -13 15 -12
16 4 3 9 -7 17 -20 17 -28 0 -19 27 -28 45 -13 9 8 11 18 6 33 -11 27 -11 30
-11 68 0 16 -4 28 -9 25 -5 -4 -7 3 -4 14 7 27 15 25 49 -10 30 -32 139 -120
147 -120 13 0 -9 48 -33 75 -116 128 -211 283 -244 400 -9 33 -20 72 -25 86
-4 14 -8 64 -9 112 -2 193 83 335 245 413 71 34 100 62 89 90 -7 18 -20 17
-83 -5z m67 -7 c0 -35 -85 -78 -102 -51 -13 20 -9 26 25 41 33 15 77 21 77 10z
m-122 -66 c-3 -26 -43 -37 -61 -19 -9 9 -6 13 11 17 12 4 22 10 22 15 0 5 7 9
16 9 10 0 14 -7 12 -22z m-58 -46 c0 -12 -44 -52 -57 -52 -21 0 -15 37 8 54
19 13 49 12 49 -2z m-66 -67 c7 -19 -19 -45 -45 -45 -20 0 -20 1 -2 30 19 33
38 39 47 15z m-49 -96 c-17 -33 -32 -37 -42 -12 -4 10 2 23 16 35 31 25 44 13
26 -23z m-27 -51 c18 -22 18 -25 -2 -47 -21 -23 -48 -28 -42 -8 3 6 7 24 10
40 7 29 18 34 34 15z m-17 -112 c1 -12 2 -33 3 -48 2 -16 0 -28 -4 -28 -4 0
-10 12 -14 28 -3 15 -8 36 -11 48 -5 15 -2 21 9 21 9 0 16 -9 17 -21z m-12
-162 c12 -19 21 -39 21 -45 0 -14 -30 -11 -31 4 -5 46 -7 56 -13 66 -4 6 -5
11 -3 11 3 0 14 -16 26 -36z m31 -90 c0 -8 -4 -12 -10 -9 -5 3 -10 10 -10 16
0 5 5 9 10 9 6 0 10 -7 10 -16z m49 -99 c0 -14 -2 -16 -6 -5 -3 8 -17 28 -30
44 -19 22 -21 31 -11 37 15 9 47 -43 47 -76z m49 -115 c13 -11 20 -24 17 -30
-5 -8 -16 -4 -33 12 l-25 23 19 -33 c10 -18 27 -41 38 -50 18 -16 18 -16 12 5
-4 12 -2 24 4 28 16 10 40 -14 40 -41 0 -16 5 -22 14 -18 7 3 20 -6 29 -20 15
-22 15 -25 -1 -31 -9 -3 -18 -1 -21 6 -5 17 -52 60 -60 55 -19 -12 -84 74 -75
98 8 20 14 20 42 -4z m-71 -32 c-3 -8 -6 -5 -6 6 -1 11 2 17 5 13 3 -3 4 -12
1 -19z m17 -26 c2 -4 -5 -9 -17 -9 -17 -2 -19 0 -7 7 18 12 18 12 24 2z m66
-51 c0 -3 -11 -6 -24 -6 -13 0 -22 5 -19 11 4 12 43 7 43 -5z m-90 -28 c-17
-12 -19 -18 -9 -31 12 -16 12 -16 -5 -1 -17 16 -17 18 0 36 11 11 23 18 27 15
5 -2 -1 -11 -13 -19z m238 -46 c3 -16 1 -17 -17 -7 -25 13 -28 33 -4 28 10 -2
19 -11 21 -21z m37 -45 c-8 -8 -25 10 -25 26 0 13 2 13 14 -4 8 -10 13 -21 11
-22z"/>
<path d="M1284 1667 c-11 -29 15 -55 88 -91 203 -98 286 -302 227 -557 -34
-143 -122 -302 -242 -435 -43 -48 -61 -99 -30 -87 16 6 17 19 3 28 -6 4 -8 11
-5 16 10 15 23 10 27 -8 2 -13 20 -1 71 49 37 36 67 61 67 56 0 -5 9 -4 20 2
11 6 20 7 21 3 0 -4 4 1 8 11 7 19 8 19 13 -1 4 -16 2 -21 -11 -18 -31 6 -43
-11 -55 -79 -12 -59 -11 -68 3 -79 9 -7 18 -21 19 -32 5 -28 21 -45 42 -45 10
0 23 -7 30 -15 7 -8 16 -15 20 -15 11 0 7 74 -5 83 -5 5 0 6 12 2 12 -3 24 -1
28 5 3 5 12 10 18 10 7 0 -1 -10 -17 -23 -21 -17 -27 -28 -22 -44 4 -12 13
-24 22 -27 19 -7 57 31 50 50 -3 8 -8 36 -12 61 -3 26 -10 58 -15 70 -5 13 -5
23 -1 23 4 0 0 4 -7 9 -9 6 -22 6 -33 0 -14 -7 -16 -6 -12 6 3 8 9 13 13 11 3
-2 12 2 19 10 10 11 10 14 0 14 -9 0 -9 3 2 10 12 7 12 10 1 10 -8 0 -11 6 -7
16 3 8 -2 30 -11 47 -15 29 -17 30 -23 12 -4 -11 -3 -31 2 -45 7 -20 7 -22 -3
-13 -7 7 -12 28 -11 48 2 43 -12 45 -33 4 -16 -29 -50 -69 -60 -69 -4 0 17 30
73 105 18 24 72 134 87 180 45 130 51 281 16 394 -13 42 -15 61 -7 61 18 0 76
-39 82 -55 4 -8 13 -15 21 -15 12 0 14 7 9 32 -8 39 -6 37 -53 53 -21 8 -32
14 -25 15 7 0 11 3 9 8 -3 4 -1 16 4 27 7 19 8 19 8 -2 1 -12 10 -27 21 -33
15 -8 23 -6 40 12 15 16 17 24 8 30 -9 5 -8 8 5 8 25 0 23 46 -3 53 -25 6 -34
-7 -26 -39 5 -17 3 -23 -4 -19 -5 3 -10 24 -10 46 l0 39 33 -13 c19 -8 33 -22
35 -34 2 -12 11 -27 20 -35 11 -9 14 -10 8 0 -9 14 3 16 24 2 13 -8 12 -10 -4
-10 -19 0 -19 -1 2 -22 11 -13 23 -36 27 -53 5 -25 5 -27 -5 -12 -9 15 -19 17
-45 13 -22 -5 -36 -2 -45 9 -7 8 -18 15 -26 15 -9 0 -5 -14 14 -44 26 -41 28
-43 50 -28 12 8 25 12 28 9 3 -3 -4 -8 -15 -12 -12 -3 -21 -12 -21 -20 0 -23
12 -45 21 -39 5 3 9 -2 9 -10 0 -9 9 -16 21 -16 11 0 18 4 15 9 -4 5 4 6 16 3
19 -5 20 -7 5 -10 -9 -2 -15 -7 -12 -11 6 -11 -27 -8 -46 4 -8 6 -26 27 -38
48 -21 34 -26 37 -38 24 -12 -12 -9 -19 23 -55 20 -23 41 -39 45 -36 5 3 9 0
9 -6 0 -6 4 -9 9 -6 5 3 11 -3 14 -15 5 -17 3 -18 -10 -7 -27 22 10 -43 46
-81 26 -28 33 -31 51 -21 l21 11 -22 20 c-19 16 -20 19 -5 25 13 5 15 17 12
63 -2 31 -10 70 -17 86 -7 17 -11 34 -10 39 4 17 -20 73 -42 97 -22 24 -23 26
-26 54 -2 24 -63 87 -101 103 -55 24 -116 26 -166 7 -24 -9 -44 -21 -44 -27 0
-17 93 -97 105 -90 5 3 4 -1 -3 -10 -10 -13 -11 -22 -2 -37 6 -12 7 -21 2 -21
-4 0 -13 12 -20 28 -11 27 -11 26 -6 -8 4 -33 3 -32 -21 17 -33 66 -123 149
-208 191 -83 41 -125 50 -133 29z m92 -23 c37 -18 41 -26 20 -43 -10 -8 -22
-7 -50 4 -20 8 -36 17 -36 19 0 3 -3 11 -6 20 -8 21 27 21 72 0z m85 -49 c16
-9 27 -20 24 -25 -14 -23 -78 0 -69 25 7 19 8 19 45 0z m89 -81 c0 -26 -23
-25 -51 2 l-30 29 23 6 c25 6 58 -15 58 -37z m150 42 c0 -2 -7 -7 -16 -10 -8
-3 -12 -2 -9 4 6 10 25 14 25 6z m-40 -31 c0 -2 -9 -3 -19 -2 -11 0 -18 5 -15
9 4 6 34 0 34 -7z m-59 -77 c8 -15 6 -18 -12 -18 -30 0 -50 29 -37 54 11 19
11 19 25 0 8 -10 19 -27 24 -36z m24 -48 c19 -21 14 -50 -7 -50 -14 0 -40 55
-30 64 9 10 18 7 37 -14z m295 -68 c-8 -2 -20 -11 -26 -19 -10 -11 -12 -10
-10 10 1 19 5 22 26 18 16 -3 20 -6 10 -9z m-258 -38 c5 -39 -9 -44 -36 -15
-14 15 -15 24 -7 40 16 29 38 16 43 -25z m8 -60 c0 -17 -24 -84 -30 -84 -8 0
-3 66 5 80 7 11 25 14 25 4z m290 -49 c0 -2 -5 -7 -12 -11 -7 -4 -8 -3 -4 4 4
7 3 12 -2 12 -14 0 -23 -28 -12 -35 6 -4 10 -11 10 -18 0 -6 -6 -2 -14 8 -9
13 -11 25 -5 36 4 9 5 20 1 24 -4 4 3 2 16 -4 12 -6 22 -14 22 -16z m-290
-115 c-10 -35 -10 -35 -10 -55 0 -8 -9 -15 -20 -15 -19 0 -19 2 6 50 30 57 36
63 24 20z m-30 -106 c0 -8 -4 -12 -10 -9 -5 3 -10 10 -10 16 0 5 5 9 10 9 6 0
10 -7 10 -16z m-20 -44 c-6 -11 -15 -22 -21 -25 -6 -4 -14 -17 -19 -29 -8 -18
-9 -18 -9 -3 -1 32 29 86 45 80 10 -4 11 -10 4 -23z m-74 -174 c-17 -23 -32
-33 -42 -29 -11 4 -6 13 23 38 47 41 54 37 19 -9z m-46 -56 c0 -15 -39 -52
-49 -45 -6 3 -11 -2 -11 -12 0 -30 -16 -46 -34 -36 -15 8 -13 13 13 39 17 16
31 34 31 40 0 26 50 40 50 14z m105 -60 c3 -5 2 -10 -4 -10 -5 0 -13 5 -16 10
-3 6 -2 10 4 10 5 0 13 -4 16 -10z m-205 -49 c0 -11 -29 -35 -35 -29 -10 9 7
38 21 38 8 0 14 -4 14 -9z m153 -8 c10 4 17 -2 20 -15 6 -20 7 -20 32 -4 33
22 39 16 40 -34 0 -32 -2 -37 -13 -27 -11 9 -18 6 -32 -13 -10 -14 -18 -29
-17 -35 1 -5 -4 -10 -10 -9 -39 3 -44 5 -38 14 3 5 12 7 20 3 10 -3 15 1 15
13 0 9 3 14 7 11 3 -4 12 1 19 11 11 14 9 21 -14 45 -27 29 -39 32 -61 18 -12
-8 -13 -12 -2 -25 11 -13 17 -14 30 -4 14 11 14 11 3 -3 -7 -9 -10 -24 -6 -33
3 -9 1 -16 -5 -16 -6 0 -11 8 -11 19 0 10 -6 24 -14 30 -18 15 -17 51 1 44 9
-4 11 1 7 13 -4 15 -4 16 4 5 6 -8 17 -11 25 -8z"/>
<path d="M1607 536 c-3 -8 0 -17 8 -19 15 -7 25 1 25 20 0 17 -26 17 -33 -1z"/>
<path d="M745 1600 c-39 -12 -102 -64 -121 -101 l-15 -29 33 2 c25 2 34 8 38
26 3 15 17 29 38 37 l32 14 0 -39 c0 -30 -5 -40 -20 -45 -11 -3 -24 -3 -30 0
-17 10 -11 -4 10 -25 28 -28 70 -27 70 3 0 18 2 19 10 7 15 -23 12 -40 -7 -40
-24 -1 -46 -19 -60 -52 -19 -42 1 -43 52 -3 26 19 50 35 54 35 13 0 51 89 44
106 -5 13 -3 15 8 10 8 -4 5 0 -5 8 -16 13 -22 13 -34 3 -13 -10 -14 -9 -2 9
12 19 16 20 27 8 17 -16 50 -3 60 23 14 35 -111 65 -182 43z m69 -43 c4 4 4
-1 0 -10 -3 -10 -7 -17 -8 -15 -1 2 -8 12 -16 23 -14 18 -13 19 1 8 9 -7 19
-10 23 -6z m40 -108 c-11 -18 -26 -34 -34 -36 -9 -3 -8 0 3 7 12 7 16 18 12
31 -7 21 15 52 29 39 5 -5 1 -23 -10 -41z"/>
<path d="M845 1469 c-4 -6 -5 -12 -2 -15 2 -3 7 2 10 11 7 17 1 20 -8 4z"/>
<path d="M693 1504 c-3 -8 -1 -20 5 -26 16 -16 42 -2 42 22 0 24 -38 28 -47 4z"/>
<path d="M1630 1480 c13 -11 25 -20 28 -20 3 0 -3 9 -13 20 -10 11 -23 20 -28
20 -6 0 0 -9 13 -20z"/>
<path d="M640 1461 c-56 -22 -71 -47 -98 -161 -24 -102 -26 -146 -6 -154 12
-5 13 -8 2 -20 -7 -8 -16 -12 -20 -9 -5 2 -8 0 -8 -6 0 -6 9 -15 19 -21 16 -8
25 -4 51 21 35 35 75 104 47 81 -13 -11 -15 -10 -10 7 3 12 9 18 14 15 5 -3 9
0 9 6 0 6 4 9 8 6 8 -5 40 25 70 65 10 13 9 19 -2 29 -13 10 -19 6 -36 -22
-17 -25 -20 -27 -15 -9 6 18 2 29 -16 44 l-24 19 27 -16 c26 -15 27 -15 49 17
12 17 29 38 37 45 14 10 13 12 -5 12 -11 0 -26 -7 -33 -15 -9 -11 -22 -14 -42
-10 -17 4 -35 2 -43 -5 -12 -10 -15 -9 -15 4 0 9 5 16 11 16 5 0 8 4 4 9 -3 5
7 19 21 30 28 22 30 33 4 22z m-23 -138 c1 -22 -1 -24 -8 -10 -6 9 -18 17 -27
18 -11 1 -8 4 8 9 14 4 25 8 25 9 0 1 1 -11 2 -26z m43 -76 c0 -5 -4 -6 -9 -2
-5 3 -12 1 -16 -4 -8 -13 -45 -9 -45 5 0 7 10 9 25 6 19 -3 25 0 25 14 0 16 2
17 10 4 5 -8 10 -19 10 -23z m-80 -41 c0 -2 -7 -7 -16 -10 -8 -3 -12 -2 -9 4
6 10 25 14 25 6z m-10 -63 c-11 -17 -11 -17 -6 0 3 10 7 26 7 35 1 15 2 15 6
0 2 -10 -1 -25 -7 -35z"/>
<path d="M645 1435 c-16 -13 -28 -25 -25 -25 3 -1 13 -3 23 -5 11 -2 21 -6 24
-9 3 -3 14 -1 24 5 22 11 25 39 5 39 -8 0 -16 4 -18 10 -1 5 -16 -1 -33 -15z"/>
<path d="M1803 1443 c-32 -12 3 -56 37 -46 44 13 43 13 25 33 -18 19 -37 24
-62 13z"/>
<path d="M974 1375 c2 -5 9 -9 15 -7 12 2 12 -2 13 -86 0 -28 4 -55 9 -58 10
-6 11 -2 10 79 0 53 5 62 32 58 4 0 7 4 7 9 0 11 0 11 -53 14 -22 1 -36 -3
-33 -9z"/>
<path d="M1299 1383 c-1 -7 -2 -19 -3 -25 -1 -12 -24 -18 -68 -19 -16 0 -27
-49 -20 -96 5 -38 18 -26 21 19 3 50 16 70 45 66 18 -3 21 -10 21 -50 0 -27 5
-48 10 -48 6 0 9 19 9 42 -1 28 4 46 14 54 13 9 13 12 -2 17 -10 4 -15 10 -12
15 2 4 1 14 -5 22 -6 11 -9 11 -10 3z"/>
<path d="M1359 1374 c-4 -81 -1 -148 7 -151 11 -4 12 152 1 163 -4 4 -7 -1 -8
-12z"/>
<path d="M1446 1342 c-27 -6 -40 -22 -44 -55 -6 -52 43 -85 91 -60 15 7 25 18
22 24 -4 5 -15 3 -28 -6 -27 -19 -32 -19 -51 1 -26 25 -19 36 22 34 57 -3 62
-1 62 20 0 23 -45 49 -74 42z m35 -22 c30 -17 23 -25 -21 -25 -43 0 -51 8 -22
24 21 13 20 13 43 1z"/>
<path d="M1078 1333 c-9 -16 -1 -82 10 -96 19 -22 59 -27 75 -8 19 21 27 71
17 96 -10 24 -11 22 -16 -34 -6 -81 -62 -82 -69 -2 -3 43 -10 59 -17 44z"/>
<path d="M1330 1036 c0 -51 4 -86 10 -86 6 0 10 9 10 20 0 11 4 20 10 20 5 0
15 -9 22 -20 7 -11 18 -20 25 -20 19 0 16 8 -12 34 -31 29 -31 32 3 61 17 15
22 24 13 25 -8 0 -25 -10 -38 -22 l-23 -21 0 41 c0 22 -4 44 -10 47 -6 4 -10
-25 -10 -79z"/>
<path d="M936 1036 c1 -40 4 -77 7 -83 3 -5 22 -7 41 -5 20 2 33 9 30 14 -4 5
-15 8 -25 5 -26 -7 -33 8 -34 77 0 33 -5 61 -10 63 -6 2 -10 -25 -9 -71z"/>
<path d="M1073 1069 c-61 -23 -47 -119 17 -119 75 1 70 -4 70 61 0 44 -3 59
-12 56 -7 -2 -22 -1 -33 3 -11 4 -30 4 -42 -1z m49 -21 c27 -22 29 -46 6 -68
-12 -11 -28 -18 -36 -15 -7 3 -17 5 -22 5 -13 0 -20 30 -14 55 5 21 14 28 45
34 3 0 12 -5 21 -11z"/>
<path d="M1240 1070 c-8 -5 -23 -7 -32 -4 -16 5 -18 -2 -18 -55 0 -34 4 -61
10 -61 6 0 10 12 10 28 0 42 10 70 28 77 24 9 43 -18 44 -63 0 -23 5 -42 10
-42 5 0 8 23 6 51 -3 57 -29 87 -58 69z"/>
<path d="M1490 1072 c-71 -23 -61 -126 12 -124 60 3 63 6 63 63 0 38 -4 53
-13 51 -7 -1 -21 2 -30 7 -9 4 -24 6 -32 3z m38 -28 c22 -15 28 -39 14 -61
-10 -17 -54 -23 -69 -11 -19 15 -16 59 5 74 22 17 23 17 50 -2z"/>
<path d="M1282 507 c-6 -7 -7 -18 -3 -26 6 -9 11 -10 15 -2 4 6 2 11 -5 11 -8
0 -8 4 1 15 7 8 10 15 7 15 -2 0 -9 -6 -15 -13z"/>
<path d="M1210 495 c0 -8 4 -15 10 -15 5 0 7 7 4 15 -4 8 -8 15 -10 15 -2 0
-4 -7 -4 -15z"/>
</g>
</svg>
